<?xml version="1.0" encoding="UTF-8"?>
<svg id="Calque_2" data-name="Calque 2" xmlns="http://www.w3.org/2000/svg" viewBox="0 0 483.56 350">
  <defs>
    <style>
      .cls-1 {
        fill: #d1d3e1;
      }

      .cls-1, .cls-2, .cls-3, .cls-4, .cls-5, .cls-6, .cls-7, .cls-8, .cls-9, .cls-10, .cls-11, .cls-12, .cls-13, .cls-14, .cls-15, .cls-16, .cls-17, .cls-18, .cls-19, .cls-20, .cls-21, .cls-22, .cls-23, .cls-24, .cls-25, .cls-26, .cls-27, .cls-28, .cls-29, .cls-30, .cls-31, .cls-32, .cls-33, .cls-34, .cls-35, .cls-36, .cls-37, .cls-38, .cls-39, .cls-40, .cls-41, .cls-42, .cls-43, .cls-44, .cls-45, .cls-46, .cls-47, .cls-48, .cls-49, .cls-50, .cls-51, .cls-52, .cls-53, .cls-54, .cls-55, .cls-56, .cls-57, .cls-58, .cls-59, .cls-60, .cls-61, .cls-62, .cls-63, .cls-64, .cls-65, .cls-66, .cls-67, .cls-68, .cls-69, .cls-70, .cls-71, .cls-72, .cls-73, .cls-74, .cls-75, .cls-76, .cls-77, .cls-78 {
        stroke-width: 0px;
      }

      .cls-2 {
        fill: #46322d;
      }

      .cls-3 {
        fill: #b4bdd4;
      }

      .cls-4 {
        fill: #a6846e;
      }

      .cls-5 {
        fill: #c4cce2;
      }

      .cls-6 {
        fill: #81553e;
      }

      .cls-7 {
        fill: #c89179;
      }

      .cls-8 {
        fill: #dbb5a2;
      }

      .cls-9 {
        fill: #d5a58a;
      }

      .cls-10 {
        fill: #372621;
      }

      .cls-11 {
        fill: #bcc0d0;
      }

      .cls-12 {
        fill: #d2d5e5;
      }

      .cls-13 {
        fill: #5f3a2d;
      }

      .cls-14 {
        fill: #ced4e5;
      }

      .cls-15 {
        fill: #b3bbd6;
      }

      .cls-16 {
        fill: #b9bfd4;
      }

      .cls-17 {
        fill: #cbd1e1;
      }

      .cls-18 {
        fill: #b6b9d3;
      }

      .cls-19 {
        fill: #4b3128;
      }

      .cls-20 {
        fill: #372321;
      }

      .cls-21 {
        fill: #331d18;
      }

      .cls-22 {
        fill: #402824;
      }

      .cls-23 {
        fill: #aeb8cb;
      }

      .cls-24 {
        fill: #503933;
      }

      .cls-25 {
        fill: #e09e8d;
      }

      .cls-26 {
        fill: #ab5e4b;
      }

      .cls-27 {
        fill: #c2c8d9;
      }

      .cls-28 {
        fill: #bb806a;
      }

      .cls-29 {
        fill: #a3aac0;
      }

      .cls-30 {
        fill: #ccd2e7;
      }

      .cls-31 {
        fill: #9da3ba;
      }

      .cls-32 {
        fill: #bca297;
      }

      .cls-33 {
        fill: #afb7cb;
      }

      .cls-34 {
        fill: #c5bab8;
      }

      .cls-35 {
        fill: #e6ebf5;
      }

      .cls-36 {
        fill: #473330;
      }

      .cls-37 {
        fill: #2e1b15;
      }

      .cls-38 {
        fill: #dae0ed;
      }

      .cls-39 {
        fill: #bdc2d2;
      }

      .cls-40 {
        fill: #917464;
      }

      .cls-41 {
        fill: #604c49;
      }

      .cls-42 {
        fill: #ebeef7;
      }

      .cls-43 {
        fill: #e4e9f2;
      }

      .cls-44 {
        fill: #874431;
      }

      .cls-45 {
        fill: #dee2ea;
      }

      .cls-46 {
        fill: #d7dde6;
      }

      .cls-47 {
        fill: #dde3f0;
      }

      .cls-48 {
        fill: #edf0f8;
      }

      .cls-49 {
        fill: #642b1b;
      }

      .cls-50 {
        fill: #5f463e;
      }

      .cls-51 {
        fill: #c3c7de;
      }

      .cls-52 {
        fill: #b5bfd1;
      }

      .cls-53 {
        fill: #543f38;
      }

      .cls-54 {
        fill: #a26757;
      }

      .cls-55 {
        fill: #acb1c2;
      }

      .cls-56 {
        fill: #975248;
      }

      .cls-57 {
        fill: #dcdfe7;
      }

      .cls-58 {
        fill: #cad1e4;
      }

      .cls-59 {
        fill: #2c1815;
      }

      .cls-60 {
        fill: #d5dae5;
      }

      .cls-61 {
        fill: #2e1a16;
      }

      .cls-62 {
        fill: #6a5450;
      }

      .cls-63 {
        fill: #e9c8b5;
      }

      .cls-64 {
        fill: #412d29;
      }

      .cls-65 {
        fill: #c4c9d8;
      }

      .cls-66 {
        fill: #281713;
      }

      .cls-67 {
        fill: #b58f7e;
      }

      .cls-68 {
        fill: #a4a8be;
      }

      .cls-69 {
        fill: #443129;
      }

      .cls-70 {
        fill: #523a31;
      }

      .cls-71 {
        fill: #f8f7f7;
      }

      .cls-72 {
        fill: #b2b9d2;
      }

      .cls-73 {
        fill: #604a46;
      }

      .cls-74 {
        fill: #b78d7a;
      }

      .cls-75 {
        fill: #a6acbe;
      }

      .cls-76 {
        fill: #c8cee3;
      }

      .cls-77 {
        fill: #cbd1df;
      }

      .cls-78 {
        fill: #cdab96;
      }
    </style>
  </defs>
  <g id="Calque_1-2" data-name="Calque 1">
    <g>
      <path class="cls-48" d="M296.57,199.63c14.21-.4,28.38-1.2,39.2,11.06,6.39,7.24,15.26,6.95,24.01,6.06,8.16-.83,7.26-8.36,9.84-13.32,2.78,1.74,1.93,5.64,4.5,7.5,4.92,2.71,9.69-.75,14.55-.35,11.69.22,23.16,2.26,34.65,4.08,2.72.45,5.3,1.64,8.13,1.5,14.39-.4,28.63,2.61,43.03,1.86,3.23-.17,6.38.52,8.93,2.81v73.19c-4.23,2.42-8.39,6.11-13.11.8-8.4-.97-10.94-7.56-13.53-14.04-1.56,4.85.45,9.93-.69,14.87-5.54,8.13-12.35,14.28-22.91,14.51-3.13,1.08-6.42,1.75-9.17,3.76-.79.37-1.61.63-2.46.83-5.36,1.89-9.83,4.96-14.11,8.78-4.59,4.1-10.3,6.76-16.52,7.9-5.03-.84-4.47-6.68-7.78-8.65-8.79,10.77-23,12.33-33.8,19.64-3.53,2.52-7.43,3.82-11.78,3.73-6.01-.75-6.16-4.61-4.65-9.12,2.04-6.08,4.85-11.81,8.39-17.14-12.86-2.88-13.74-7.04-5.57-26.32-2.79,3.27-7.42,4.53-10.02,8.23-.84.41-1.71.42-2.58.12-1.73-1.64-5.57-2.51-4.19-5.55,3.83-8.46,4.78-18.78,13.89-24.07,2.97-1.72,3.93-4.17,4.9-7.26-3.96,2.54-7.89,4.09-12.26,5.27-10.48,2.85-17.55.72-22.54-8.66-1.26-2.37-3.27-3.87-4.78-5.91-.63-2.03.28-3.61,1.48-5.11,3.33-3.09,7.64-5.04,9.47-9.84,1.3-3.42,4.44-4.02,7.74-2.11,2.63,2.76,2.47,7.58,6.73,9.15,1.14,1.07-.72,2.69-.41,2.57,4.25-1.56,8.92.77,12.79-1.46-3.89,1-8,1.67-11.98-.57-1.61-3.61.95-3.28,2.26-3.31-8.44,1.99-5.69-8.15-10.2-10.99-.5-.74-.86-1.55-1.1-2.41-2.32-7.61-.37-14.44,3.75-20.92.67-1.06-.06.32-.03-.94.02-.6-.96-.73-1.64-.27-3.1,2.46-3.82,5.76-3.62,9.43-.12.85-.41,1.65-.83,2.39-5.76,1.13-6.04,4.49-3.61,8.96-.35,1.85-1.15,3.41-2.77,4.47-9.01-.48-11.72-9.02-17.25-13.88-1.94-1.71-1.74-6.51,2.18-6.64,10.87-.38,8.22-5.87,5.22-11.91-.43-.87-.28-1.86.26-2.72Z"/>
      <path class="cls-66" d="M483.42,124.53v32.74c-3.4,5.29-7.02,6.18-12.6,2.23-5.95-4.21-12.66-.18-18.95.62-.55.07-7.98,2.73-2.35,8.68,5.19,5.49.41,12.44-8.49,13.9-1.85-.03-3.66-.29-5.4-.92-5.06-2.93-10.1-5.9-15.67-7.8-7.17-4.94-16.77-6.21-21.65-14.75-1.06-1.86-4.27-.31-6.36-1.14-1.93-.96-2.57-2.67-2.72-4.67.64-5.4,4.5-8.19,8.7-10.7,9.75,1,16.14-6.67,24.4-9.55,2.69-.94,3.26-3.71,1.42-5.45-7.53-7.09-.62-12.55,2.2-17.97,1.54-2.95,4.18-5.54,5.59-8.78.45-.79,1.06-1.45,1.77-2,5.59,2.55,11.91-3.45,17.48,1.48.59.52.87-3.71,3.61-2.94,6.31,4.97,7.75,12.26,5.77,18.94-2.64,8.89,1.34,13.44,7.77,17.51,1.55.98,2.63,2.72,4.81,3.03,1.46-3.7.4-8.38,4.11-11.24,2.02-1.33,4.07-2.51,6.58-1.23Z"/>
      <path class="cls-43" d="M435.43,180.17c1.68.15,3.35.3,5.03.45,9.89,1.34,19.38-1.63,29.05-2.67,2.62,2.41,5.91,4.55,3.66,8.94-4.38.49-8.74-.02-12.23.25,3.5,1.19,8.77-1.75,13.92,2.27-5.96,2.65-11.32.94-15.82,1.59,4.43.37,9.53-.67,14.52,1.78-9.03,4.4-18.94.28-26.92,2.17,10.89-.3,22.95-.11,34.8,2.95-5.41,4.44-11.34,1.68-16.91,2.58-1.31-.35.44,1.72-.06.54-.11-.27.17-.46.84-.42,4.03.24,8.18-.5,12.19,1.85-6.25,2.96-13.03,1.38-19.51,2.08.3-.05.59-.09.89-.14,9.28-1.72,17.13,1.7,24.52,6.79v1.93c-11.07,4.97-22.98,2.52-34.46,3.89-6.47.77-13.27-1.93-19.45,1.86-1.95-.64-3.89-1.28-5.84-1.92-.9-.94-1.81-1.86-2.93-2.55-5.33-2.25-12.39.25-16.82-6.32,7.69-4.54,14.63,1.31,20.75.55-7.97-3.12-18.19-.12-26.76-5.97-6.72-4.59-7.7,4.86-10.93,5.48,2.42-.95,6.15-2.39,8.2,2.9-2.25,2.37-5.75-.16-8.04,2.06-5.16-.21-10.32,4.08-15.48-.02,6.13-15.92,18-29.64,26.17-30.25,1.28.07-.38-1.51-.03-.27.17.6-.02.73-.57.7-3.67-.16-6.87-.6-3.85-5.49,14.3-4.01,28.33-3.6,42.05,2.38Z"/>
      <path class="cls-14" d="M300.4,251.66c-.6,1.27-1.2,2.54-1.8,3.8,6.75,8,8.34,17.91,8.68,27.66.28,7.95,3.78,15.54,2.1,23.63-.47,2.29.99,4.24,2.49,5.98,3.72,4.32,4.63,9.74,5.41,15.08.65,4.47-1.07,9.42,6.1,10.97,3.13.67,1.41,5.64,1.38,8.73-.19.9-.59,1.68-1.21,2.36h-19.26c-13.67-2.39-25.19-8.44-33.25-20.03-2.02-2.91-6.19-6.47-2.38-9.94,3.93-3.58,6.67,1.3,9.5,3.46,1.51,1.15,2.79,2.6,4.14,3.95,4.47,3.62,8.65,12.07,14.12,8.25,3.99-2.78-2.64-9.97-4.41-15.22-1.13-3.37-3.71-5.88-6.59-8.01-4.09-3.03-6.49-6.94-6.23-12.2.1-.91.33-1.78.68-2.62,11.94-10.31,12.6-17.57,2.68-29.87-5.8-7.2-4.94-19.74,1.81-25.42,3.03-2.55,6.12-1.98,8.53.74,2.54,2.87,5.05,5.78,7.53,8.71Z"/>
      <path class="cls-42" d="M483.42,311.35c0,11.23-.24,22.48.13,33.7.14,4.16-.8,4.99-4.94,4.94-22.15-.26-44.3-.12-66.45-.12-1.95-7.69,2.1-6.23,3.98-11.46,2.68-7.47,12.09-6.09,12.63-13.53,1.61-1.32,3.52.69,5.33-.72,8.9-6.91,19.65-9.11,30.31-11.29,3.17-.65,5.99-1.9,8.91-3.07,3.65-1.46,7.31-2.63,10.11,1.56Z"/>
      <path class="cls-29" d="M281.18,328.68c-4.4-1.91-6.26-7.18-13.33-9.34,4.92,10.87,11.41,17.88,20.14,22.82,5.22,2.95,10.85,5.17,16.3,7.72h-34.67c-1.95-6.71-4.5-13.35-4.48-20.4.05-14.68-13.07-22.84-17.1-35.45.63-1.8,5.31-2.71.79-5.71-1.98-1.31-.41-4.02.93-5.86,2.32-2.12,5.15-2.32,8.08-2.17,6.07.67,9.14,5.11,11.84,9.77,1.92,3.31,4.83,5.76,6.98,8.84,1.63,6.36,6.28,10.71,10.1,15.69,5.16,6.74,3.15,11.31-5.59,14.1Z"/>
      <path class="cls-27" d="M483.42,311.35c-3.37-1.4-6.22-.93-9.76.65-7.29,3.26-15.1,5.92-23.23,5.35-2.68-.19-1.74,1.79-2.85,2.23-1.41.56.69,4.49-2.91,2.97-3.69-1.56-5.84.27-8.32,2.96-.94,1.02-4.83,3.47-6.75-.54-.55.32-1.17.56-1.6,1-3.21,3.23-6.37,8.61-11.31,3.28-4.28-4.63-3.56-9.82,2.07-13.65,1.03-.7,1.83-1.73,3.03-2.21.61-.09,1.22-.16,1.83-.21,3.68-.13,6.93-1.37,9.69-3.83,8.54-2.09,14.57-8.27,21.4-13.16,5.75-.39,11.84,1.75,17.13-2.21,3.85,4.32,7.74-3.44,11.59.04v17.33Z"/>
      <path class="cls-21" d="M462.15,7.08c8.98.35,14.38,7.32,21.27,11.53v25.04c-2.73,2.46-2.05,5.69-1.71,8.68.43,3.8-1.03,6.57-3.81,8.89-.77.44-1.59.73-2.45.91-1.26.25-2.44.7-3.62,1.23-1.94.87-4.02,2.98-6.07.92-2.01-2.01-1.42-4.67-.54-7.22,1.19-3.42,6.96-5.97,3.88-9.82-2.71-3.39-7.86.05-11.88-.87-.88-.2-1.87.31-2.8.59-.85.26-1.72.42-2.6.51-8.66-.65-9.41-8.94-13.5-14.02,2.1-4.36,5.85-2.76,9.13-2.38,7.18.84,14.32.25,22.03.82-1.73-9.05-9.05-10.37-14.18-14.02-2.59-3.13-6.5-3.49-9.96-4.85-1.79-.7-3.34-2.16-3-4.3.42-2.65,2.55-3.47,4.93-3.16,4.95.64,9.92.9,14.87,1.52Z"/>
      <path class="cls-12" d="M421.79,313.39c.03,2.67-2.27,3.51-3.79,5.04-3.38,3.39-2.53,7.62.31,10.18,3.19,2.88,5.12.17,6.41-3.27.93-2.47,3.17-1.02,4.89-.36-1.62,4.54-1.32,9.88-9.36,9.4-4.09-.24-.9,6.73-3.44,10.47-.54-2.57-.97-4.6-1.85-8.76-1.21,5.98-2,9.88-2.79,13.79h-28.89c-2.15-5.46,3.73-5.41,6.23-8.21-2.51-1.75-5.19-2.93-5.45-6.02-.18-5.06,4.11-4.04,6.9-5.07,5.52-4.6,13.92-4.82,18.1-12.27.49-.88,6.39-8.97,12.74-4.92Z"/>
      <path class="cls-36" d="M477.72,126.5c-3.46,4.87-.81,11.08-2.94,16.51-8.02-5.09-13.03-12.94-22.1-16.64,9.6-8.99,5.61-18.83,1.76-28.66.35-.27.7-.55,1.05-.83,3-.95,6.02-1.85,8.77-3.41,3.75-2.12,9.26-3.18,5.17-9.74-.8-1.28,1.35-2.52,2.94-2.98,4.1-.14,7.38,1.32,9.57,4.89,1.37,3.72-1.21,5.95-3.17,8.41-.86.9-2.08,1.41-2.89,2.34-.52.59-1.78.88-1.25,2.12.64-.68,1.28-1.37,1.99-2.02,2.2-1.12,3.59-4.22,6.81-2.77v13.48c-4.92,5.54-7.2,11.87-5.7,19.3Z"/>
      <path class="cls-10" d="M469.8,178.17c-1.67,3.37-4.09,4.98-8.11,4.46-7.05-.92-14.37,1.05-21.23-2.01,9.53.66,8.96-5.34,7.83-11.79-2.85-1.29-4.85,3.54-8.32.54,2.64-5.39,9.88-7.48,11.16-13.96,6.7,6.14,15.61-6.31,21.78,2.42,4.14,5.86,7.04-.07,10.5-.55v9.63c-3.46,5.05-7.01,10-13.62,11.27Z"/>
      <path class="cls-47" d="M390.95,330.58c-1.27,2.58-6.12,1.61-5.77,5.8-6.56,3.49-12.96,7.19-17.33,13.49h-30.82c-.53-4.37,3.71-3.05,5.46-4.66,1.94-1.79,6.66-.16,6.11-4.94,8.34-6.42,18.89-8.49,27.91-14.06,4.87-3.01,2.71-5.57,3.97-8.11,6.5,1.82,6.75,8.58,10.47,12.48Z"/>
      <path class="cls-77" d="M483.42,211.2c-3.3-.35-7.27,1.93-8.35-4.48-.43-2.58-6.39-1.08-9.83-1.23-4.09-.18-8.19-.04-12.33-1.84h22.81c0-.63,0-1.25,0-1.88h-16.82c-.03-.62-.06-1.24-.08-1.86h20.67c-12.67-3.42-25.42-4.75-38.3-5.81h30.14c.04-.62.08-1.25.12-1.87h-18.67c0-.71,0-1.42.01-2.13h19.03c0-.61,0-1.23,0-1.84h-14.98c-.02-.76-.04-1.52-.05-2.28h17.04c9.85-5.46,7.55,3.86,9.6,7.89v17.33Z"/>
      <path class="cls-60" d="M429.51,218.88c-1.3-2.95-.22-4.03,2.85-3.84,17.08,1.09,33.96-3.24,51.05-1.91v7.7c-18.04,1.38-35.9-2.29-53.91-1.95Z"/>
      <path class="cls-61" d="M481.49,86.01c-3.29-1.36-6.15-3.87-9.99-3.78-10.08-2.94-5.43-8.81-2.87-14.29,2.05-2.63,2.42-7,7.1-6.95l-.04-.02c1.14,1.94,1.8,2.08,2.77.66,1.18-1.74,2.25-3.76,4.96-2.58v26.96c-.64.91-1.28.95-1.93,0Z"/>
      <path class="cls-65" d="M367.85,349.87c.63-9.53,10.23-10.18,15.33-15.28.04-.04,1.31,1.16,2,1.79,6.99,3.47,8.95,6.79-.11,10.19-.89.33-1.22,2.17-1.81,3.3h-15.41Z"/>
      <path class="cls-71" d="M483.42,193.87c-2.12-3.94-3.04-9.35-9.6-7.89-2.6-1.96-4.31-4.36-4.01-7.81,3.98-4.44,8.57-8.12,13.62-11.26v26.96Z"/>
      <path class="cls-20" d="M477.72,126.5c-.68-3.76-6.04-8.57-3.42-10.17,4.06-2.5,2.9-9.63,9.13-9.13v17.33c-1.9.66-3.8,1.31-5.7,1.97Z"/>
      <path class="cls-39" d="M348.6,340.27c3.17,2.81.17,3.59-1.61,4.55-3.27,1.77-6.64,3.37-9.96,5.04h-13.48c0-.61.03-1.21.07-1.82,2.92-6.54,9.47-.83,13.39-3.97,4.26-.05,8.17-1.2,11.59-3.81Z"/>
      <path class="cls-2" d="M483.42,59.05c-1.31,1.33-2.6,2.69-3.94,3.99-.87.83-1.82,1.58-2.74,2.36-.35-1.47-.7-2.95-1.05-4.42,3.2-3.08,5.47-6.3,4.06-11.27-.75-2.65-.37-5.75,3.67-6.06v15.41Z"/>
      <path class="cls-73" d="M481.49,86.01c.64,0,1.28,0,1.93,0v7.7c-1.84,1.24-3.68,2.48-5.53,3.72-1.21-1.03-1.43-2.2-.48-3.52,1.36-2.63,2.72-5.27,4.08-7.9Z"/>
      <path class="cls-38" d="M67.63,37.71c14.72,8.33,27.36,20.28,42.09,27.84,11.1,5.69,19.73,14.76,31.6,19.14,16.31,6.02,26.26,20.94,39.61,31.19,7.01,5.39,13.77,10.95,18.55,19,3.8,6.4,12.13,8.35,18.18,12.68-1.79,7.6-6.06,13.84-10.81,19.83-2.71,1.35-4.51,3.75-6.62,5.81-4.06-.26-7.98-.54-11.74,1.95-2.09,1.38-3.94,1.91-1.94,4.78,4.5,6.45-.43,6.21-4.2,5.06-10.05-3.06-19.59-7.51-28.93-12.35-5.96-3.09-4.5-10.94-9.79-14.97,1.51,5.34,3.29,10.69-1.38,14.96-2.65,2.42-5.33.63-7.75-1.02-3.34-5.43-5.16-11.3-5.18-17.7-2.36-7.96.07-15.01,3.99-21.86,1.48-2.58,3.27-4.45-1.35-7.31-5.31-3.29-.07-7.63,1.62-10.94-10.57-7.43-24.42-9.71-33.52-19.52-5.94-6.4-10.85-13.69-17.28-19.85-3.51-3.36-5.84-6.05-11.11-4.76-3.19.79-5.9-2.01-8.89-3.04-3.46-1.69-6.09-4.33-8.48-7.27-2.29-3.62-6.5-6.11-6.52-11.07-.29-5.92,2.73-8.72,8.47-9.02,2.84-.15,5.7-.04,8.48-.77.94-.3,1.9-.55,2.87-.78Z"/>
      <path class="cls-35" d="M250.26,284.46c-.98,5.28,6.96,5.53,6.06,10.7-3.22,2.88-5.07-3.81-8.28-1.14-1.16-1.28-2.31-2.56-3.47-3.85-8.74-11.39-18.19-22.32-23.3-36.06-2.92-14.27-8.21-28.09-8.42-42.9,3.41-5.89-.14-12.37,1.68-18.56,1.35-4.6,1.85-9.39,4.9-13.31-5.62,5.64-7.46,13.13-9.71,20.41-.9,2.91-2.13,5.83-5.89,4.66-4.14-1.28-1.98-4.25-1.26-6.51-3.28,3.26,1.34,8.11-2,11.58-2.04.81-3.49-.18-4.8-1.57-3.12-7.29-1.56-14.88-1.43-22.39,1.35-2.81,2.66-5.63,4.62-8.09,4.61-3.33,11.98-4.21,11.05-12.46,1.67-7.21,8.56-9.26,13.3-13.43,7.34,19.3,22.04,31.48,40.62,38.06,10.63,3.77,21.45,7.72,32.64,10.04,1.38,2.14,2.98,4.18,4.1,6.45,3.36,6.83,1.11,10.43-6.39,10.5-1.47.01-3.54-2.86-4.23.75-.28,1.47-.82,3.83,1.02,4.24,7.33,1.65,7.87,11.12,15.08,12.72,1.2,2.13-.8,3.38-1.38,5.02,3.36-2.84,4.11-9.87,11.09-6.95v.02c1.14,2.57,2.08,5.15-.01,7.71-2.1-.93-4.96-1.66-5.14,1.31-.42,6.83-5.92,7.84-10.31,10.27-4.49.67-6.13-2.43-7.7-5.73-1-2.12-2.44-3.95-5.1-3.55-2.67.4-3.28,2.8-3.93,4.91-2.61,8.36-5.8,16.04,4.86,22.57,5.68,3.48,3.67,22.94-1.15,27.37-1.88,1.73-4.34-1.61-6.22.62-5.17-3.63-4.42-10.08-6.96-15.02-3.76-7.3-6.54-15.01-14.32-19.18-1.35-1.02,1.68-2.59-.94-4.21-1.75-1.08-4.78-4.75-3.44-7.14,4.91-8.77-1.06-11.89-8.01-15.16,7.15-2.48,13.35-4.46,20.06-3.57-6.79-1.38-13.15,1.24-19.64,2.35-4.17.71-8.25.93-12.38.37-1.82-.24-4.39-.65-4.23-2.94.22-3.05,3.46-1.47,5.27-2.12-3.22.47-6.38-1.06-10.28.2.7,10.61,2.47,21.02,9.24,30.04.55.69,1.06,1.41,1.57,2.13,4.2,7.07,11.65,12.09,13.16,20.86Z"/>
      <path class="cls-5" d="M63.36,64.93c4.27-.28,8.19,6.28,12.82.65.29-.35,2.27-.06,2.57.46,4.67,8.02,13.68,12.15,18.46,19.54,4.76,7.37,8.18,14.72,18.47,14.59,1.3-.02,2.71,1.46,3.92,2.43,5.34,4.28,10.62,8.66,19.34,8.62-3.98,4.05-7.18,7.2-7.23,12.68,9.56-2.46,8.94.63,4.45,7.22-4.47,6.55-6.43,14.2-5.33,22.33-2.14,2.01-4.28.82-6.43.03-8.64-4.1-18.28-5.94-26.26-11.55l-17.04-19.49c2.95-9.87,3.76-10.05,12.11-2.91-2.26-7.98-10-7.93-16.17-10.33,0-5.27-5.04-6.54-7.7-9.71.41-9.17,5.91-15.47,15.1-16.92-4.04-2.08-8.17-2.97-12.14-4.35-6.03-2.1-10.52-5.77-8.95-13.26Z"/>
      <path class="cls-22" d="M462.15,7.08c-2.96,2.37-5.92.51-8.94.16-2.98-.35-6.03-.08-10.04-.08,2.72,7.46,12.07,2.48,13.32,9.44-2.31,3.42-5.96,3.62-9.43,3.39-7.6-.51-15.47-3.07-21.71,3.9-3.87-.67-7.57,1.25-11.36.93-6.92-.59-10.6,1.8-11.25,9.27-.53,6.14-5.54,8.01-11.08,8.41-6.1,2.44-12.24,3.41-18.5.6-5.49-4.66-1.79-9.25.54-13.4,2.43-4.32,7.18-7,9.25-11.73,5.3-8,15.06-6.69,22.33-10.61,1.53-.83,3.77-.31,5.13-1.96,2.47-3.05,5.85-3.79,9.33-2.82,5.22,1.46,10.45-1.02,15.6.48,9.56-2.84,17.91,2.44,26.81,4.02Z"/>
      <path class="cls-63" d="M67.14,39.75c-2.73,3.33-6.55,1.99-9.78,1.81-6.05-.34-8.01,2.4-7.48,7.89-1.07,1.52-1.6,3.41-3.19,4.58-.82.51-1.7.87-2.63,1.13-4.33.73-8.64.74-12.93-.27-7.99-3.3-16.31-6.11-21.23-14.05-1.63-3.46-2.32-7.13-2.36-10.94.59-4.43,3.42-6.69,7.48-7.75,7.37-11.02,18.21-12.12,27.49-2.71,7.51,7.62,13.69,16.84,24.63,20.31Z"/>
      <path class="cls-75" d="M223.37,253.6c4.32,10.96,11.7,20.11,17.86,29.98,1.32,2.12,3.47,3.76,3.35,6.6-17.3-15.6-34.38-31.44-51.98-46.69-9.59-8.31-21.55-13.81-29.14-24.51-.39-5.31,1.78-10.5-3.07-15.73-3.77-4.08.17-8.45,8.62-10.38,5.67,3.28,5.22,8.93,5.57,14.29-.66,14.55-.58,14.35,16.8,21.1,3.16,1.23,5.24-.05,7.82-.42,6.31,8.16,8.92,18.46,15.5,26.44,1.15,1.54,2.28,3.09,3.72,4.38.03.03.34,2.06.91.02.27-.97-.4.34-.48-.99-.15-.86-.08-1.66.18-2.47,1.13-1.42,2.31-2.68,4.34-1.59Z"/>
      <path class="cls-31" d="M63.36,64.93c2.38,6.5,5.37,11.58,13.72,12.13,4.37.29,8.54,3.76,13.22,5.99-2.69,3.07-5.5,1.1-7.85,1.62-1.96.43-6.52-1.1-4.65,4.33.42,1.23-.09,3.78-3.99,2.9-6.54-1.47,2.16,7.88-4.45,7.56-9.06-8.94-17.18-18.53-21.25-30.91-4.1-1.92-4.33-5.61-4.32-9.42.07-2.18.78-4.13,2.15-5.83l.24-.07c4.49-.2,6.98,3.03,9.81,5.68,2.46,2.01,4.92,4.02,7.37,6.03Z"/>
      <path class="cls-8" d="M67.14,39.75c-9.82.12-15.31-6.26-21.51-12.83-13.69-14.49-15.94-14.38-30.59-4.77,1.03-6.89-5.73-6.61-8.94-9.52C3.06,9.88-1.88,7.53.74,2.95,2.83-.69,7.69.9,11.22,2.27c11.27,4.36,22.66,8.08,34.42,11.08,8.34,2.13,11.3,11.59,17.01,17.44,1.96,2.01,3.33,4.6,4.98,6.92-.16.68-.33,1.36-.49,2.04Z"/>
      <path class="cls-72" d="M169.58,193.87c-6.55,2.43-12.79,4.23-3.9,12.4,2.83,2.6.88,8.81-2.24,12.71-4.4-5.81-8.8-11.63-13.19-17.44-1.64-3.89-4.99-6.64-7.03-10.12-2.49-4.24-7.75-8.48-3.06-14.46,3.64-.84,6.47-7.16,9.68-4.42,6.87,5.89,18.9,2.76,22.62,13.72,1.31,3.84,2.17,6.59-2.88,7.6Z"/>
      <path class="cls-68" d="M140.69,178.44c.8,5.36,1.47,10.47,6.5,14.29,2.05,1.56,5.74,4.63,3.06,8.8-14-10.54-23.66-25.04-34.5-38.39-5.8-7.14-14.2-12.15-17.61-21.24.32-.85.64-1.69.96-2.54,7.31,6.9,17.87,6.9,25.93,12.21.75,8.12,3.97,15,10.2,20.38,1.94,2.06,6.02,2.32,5.45,6.49Z"/>
      <path class="cls-40" d="M371.65,191.89c-12.96-2.6-15.14-5.48-14.83-18.38.13-5.34-.44-10.7-.69-16.05,3.78-8.83,9.98-4.46,15.66-2.87,2.68,6.4,5.08,12.92,7.61,19.39.08,4.02-1.21,7.81-1.89,11.71-.98,2.99-2.47,5.49-5.87,6.19Z"/>
      <path class="cls-4" d="M371.61,155.4c-5.07,1.36-11.01-3.79-15.48,2.06-2.94-6.73-3.69-13.87-3.99-21.1-.57-7.74,3.33-13.78,7.56-19.68,2.14-.87,3.62.16,4.91,1.71,2.29-1.28-2.72,7.96,2.94,2.05.21-.22,1.35.98,1.82,1.79,2.12,6.39.79,12.99,1.2,19.48-.18,3.59,3.09,6.17,2.9,9.77-.1,1.56-.59,2.93-1.86,3.93Z"/>
      <path class="cls-1" d="M371.65,191.89c1.36-1.97,2.73-3.94,4.09-5.91,4.38-5.78,9.71-8.72,17.03-5.7,1.7,3.12,5.31,1.16,9.67,4.2-13.22-3.45-15.78,6.93-18.59,12.77-3.15,6.55-7.4,11.13-12.19,15.84-3.29-2.67-1.36-6.44-2.05-9.66.67-3.85,1.35-7.7,2.03-11.55Z"/>
      <path class="cls-32" d="M360.29,116.64c-.64,7.43-6.37,12.76-8.15,19.72-4.77-10.8.76-20.57,3.44-30.48,1.12-4.15,2.16-7.91.73-12.02-4.8-13.8,1.9-25.2,7.62-36.82,1.25,1.16,2.04,2.75,1.66,4.27-2.9,11.55-2.86,23.19-1.51,34.91-2.46,6.57-.81,13.93-3.79,20.41Z"/>
      <path class="cls-53" d="M362.91,97.66c-4.97-13.67-1.67-27.13,1.01-40.6,2.27-5.63,2.66-11.46,3.36-17.47,1.07-9.23,7.41-16.59,15.67-21.63.35,5.07-3.15,8.28-6.18,11.31-3.74,3.75-4.85,7.6-3.04,12.44,2.56,5.93-1.9,10.66-2.72,16.02-6.26,9.07-3.97,19.43-4.42,29.38-.1,3.06.04,6.16-1.23,9.06-.5,1.02-1.31,1.51-2.45,1.48Z"/>
      <path class="cls-67" d="M7.54,29.9c2.6,2.78,3.45,6.27,4.02,9.87.13,8.08.44,16.12,5.49,23.02,3.12,2.12,4.32,6.2,8,7.74,2.33,1.99,2.87,4.46.71,6.62-2.36,2.37-5.04.65-6.89-.94-9.05-7.77-15.73-17.15-14.34-29.64.61-5.52-.42-11.58,3-16.68Z"/>
      <path class="cls-74" d="M15.5,64.78c-5.76-6.48-4.92-14.93-6.55-22.62-.12-.58,1.7-1.58,2.62-2.38,4.72,6.92,12.81,9,19.26,13.43,2.74,1.95,6.15,3.17,8.16,5.91,2.57,3.5,4.7.41,7.03.02.11,3.27.11,6.56,2.09,9.41-5.87-.53-11.97,1.62-17.62-1.49-1.85-1.51,4.68-2.48.24-4.15-5.02-2.73-8.84-6.94-13.31-10.85-1.57,2.2.07,4.21-.04,6.15.13,2.41.06,4.76-1.88,6.57Z"/>
      <path class="cls-33" d="M77.05,109.17c12.72-.87,18.71,3.51,19.81,14.82-5.38.59-9.46-14.72-15.76-1.58-2.73-3.99-4.94-8.14-4.05-13.24Z"/>
      <path class="cls-56" d="M15.5,64.78c-.07-2.53-.14-5.05-.21-7.58,7.91-4.44,11.57,4.11,17.51,5.71,2.23,3.05-1.24,2.93-2.31,4.15-1.38,1.84-7.98-4.49-5.44,3.48-5.29,1.58-5.78-4.81-9.56-5.75Z"/>
      <path class="cls-11" d="M223.32,151.53c-1,6.93-9.97,6.92-11.6,13.3-1.05,1.79-2.11,3.57-4.69,2.82-.31-.27-.61-.53-.92-.8,3.57-6.6,5.9-13.95,11.56-19.3,1.88,1.32,3.77,2.65,5.65,3.98Z"/>
      <path class="cls-34" d="M435.34,3.06c-8.06,3.47-16.76,0-24.92,2.33.33-1.15.29-2.73,1.05-3.38,3.76-3.21,20-2.37,23.87,1.05Z"/>
      <path class="cls-43" d="M337.01,344.09c-3.18,5.66-9.49.77-13.4,3.97-1.42-3.73-.35-9.14-7.27-8.91-1.96.07-2.32-3.21-1.93-5.69,1.22-7.63.54-14.72-5.98-20.24-1.27-1.08-2.3-3.58-2.01-5.16,2.41-13.21-3.68-25.75-2.82-38.84.33-5.06-7.2-7.71-5.02-13.74,2.52.4,5.13.76,6.37,3.43,4.97,10.7,7.65,11.7,18.6,8.79,4.3-1.14,9.46.49,11.31-5.63.59-1.93,1.95-1.15,2.14.4.34,2.76,4.19-1.28,3.62,1.79-.76,4.09-2.12,9.39-5.63,10.67-10.77,3.91-9.2,15.22-14.6,22.21-1.25,1.63,4.23,1.48,3.14,4.59-1.01,2.71-4.08,2.25-6.04,3.76,3.18.37,4.91-1.23,6.04-3.76,2.25-5.95,8.66-7.36,13.28-11.69.39,6.46-1.99,12.25-2.97,18.24-.42,2.57-3.61,6.15-.03,7.62,2.97,1.22,7.42,4.07,11.39-.46-3.25,6.82-6.88,13.49-9.51,20.54-.79,2.13-5.55,6.56,1.29,8.11Z"/>
      <path class="cls-57" d="M358.21,315.2c.19-3.86,2.86-4.72,5.84-6.69,8.06-5.33,16.95-8.1,25.62-11.75,3.02-1.27,3.54.28,5.12,1.09l.06.05c2.51,8.12-6.13,6.75-8.51,7.57-7.9,2.72-14.32,5.09-18.96,13.38-4.04,7.22-6.29-1.49-9.14-3.63l-.02-.02Z"/>
      <path class="cls-45" d="M471.83,293.98c-4.84,7.49-10.94,5.2-17.13,2.21-1.5-8.01-1.81-15.79,4.47-22.8-1.84,10.92,3.56,16.94,12.67,20.59Z"/>
      <path class="cls-46" d="M315.86,232.36c-6.22,1.21-9.07,5.41-9.87,12.11-5.15-4.13-1.26-7.11.17-10.18.08-1.58.39-3.04,1.93-3.9.39-3.53,1.39-6.82,3.77-9.57.06-.64.11-1.27.14-1.91.94-3.96,2.29-7.79,3.82-11.56,1.93-2.28,4.3-2.71,6.52-.82,1.45,1.24.35,3.16-.6,4.18-5.78,6.23-6.02,13.87-5.88,21.65Z"/>
      <path class="cls-57" d="M394.79,297.84c.6-4.51,2.06-8.15,7.73-6.71,6.29,1.59,7-6.67,12.51-6.93,1.88-.09,4.41-2.93,5.69-.42,1.49,2.94-1.63,2.83-3.71,3.67-2.85,1.14-6.33,2.89-7.6,5.37-3.46,6.75-8.96,5.59-14.55,5.08,0,0-.06-.05-.06-.05Z"/>
      <path class="cls-46" d="M315.85,240.09c-.08-2.57-1.96-5.15.02-7.71,5.93-.41,3.18,9.14,9.51,8.28.06,2.64-3.53.21-3.66,3.15h12.95c-4.44,3.22-8.93.58-11.13,3.99l.03-.02c-6.67,1.54-4.8-5.47-7.71-7.7Z"/>
      <path class="cls-60" d="M387.15,213.11c2-2.82,5.03-1.62,7.67-1.97,1.9-2.08,4.51-2.79,6.89-1.93,7.14,2.57,14.66,2.68,22,3.94-.01,1.27-.02,2.54-.03,3.82-12.2-1.02-24.2-4.03-36.53-3.85Z"/>
      <path class="cls-46" d="M323.54,247.81h18.34c-7.58,5.24-14.89,4.11-22.64,3.48,1.64-1.33,2.99-2.42,4.33-3.5,0,0-.03.02-.03.02Z"/>
      <path class="cls-55" d="M319.27,225.82c1.7-7.79,6.92-11.19,16.55-12.09-6.26,5.13-13.03,6.56-16.55,12.09Z"/>
      <path class="cls-35" d="M311.85,220.83c-.7,3.41-1.09,6.94-3.77,9.57-.71-1.02-1.22-2.29-2.16-3.01-2.62-1.99-3.7-5.16-2.17-7.33,1.73-2.44,3.29,2.02,5.46,1.67.91-.15,1.76-.59,2.64-.9Z"/>
      <path class="cls-43" d="M341.72,299.11c1.94,3.6,3.92,6.95.74,10.26-.54.56-4.04-.36-4.58-1.41-2.08-4.05,2.18-5.76,3.84-8.85Z"/>
      <path class="cls-57" d="M358.23,315.22c-.47,5.98-2.32,11.4-6.33,15.93.39-6.02,2.17-11.46,6.31-15.95,0,0,.02.02.02.02Z"/>
      <path class="cls-12" d="M433.3,309.35c-1.61,5.36-5.07,6.07-9.69,3.83,2.12-4.08,5.51-4.95,9.69-3.83Z"/>
      <path class="cls-35" d="M315.82,207.35c.19,4.34-.16,8.5-3.82,11.56-3.62-5.47,1.47-8.06,3.82-11.56Z"/>
      <path class="cls-64" d="M433.36,101.43c-2.08,7.88-8.6,13.15-10,21.91,7.2,6.04,6.34,7.27-4.64,13.43-4.54,2.55-8.37,6.37-13.78,7.88-2.55.71-4.29.02-6.29-.91-3.43-5.28.33-7.27,4.23-9.17,6.3-3.06,7.71-6.45,2.28-12.24-4.45-4.75-6.9-10.98-7.45-17.7,1.35-3.65,1.94-6.85-3.4-7.65-5.07-.75-5.87-4.52-4.98-8.55,2.11-9.59,1.25-19.56,3.89-29.07,6.34-5.37,7.97,2.93,11.77,4.53,3.64,1.53,1.21,4.62-1.56,6.23-1.26.7-2.17,1.65-2.37,3.49.75-1.13.51-2.41,1.56-3.06,5.79-2.5,9.14-1.01,9.89,5.58.6,5.3-.55,10.79,2.13,15.91.94,1.8.02,3.82-2.62,3.86-2.48.04-3.89.75-2,3.26,1.29,1.71,3.03,2.56,4.59.29,1.28-1.86,2.61-3.58,4.54-4.8,3.4-2.15,7.02-3.22,8.03,1.95.78,4,4.24,3.11,6.16,4.82Z"/>
      <path class="cls-24" d="M433.36,101.43c-2.34.77-4.69,1.55-7.38,2.44-.25-3.05-.49-5.85-.76-9.13-3.63.42-7.24,2.23-7.64,4.44-.68,3.74-1.37,6.78-5.47,5.55-4.17-1.25-7.2-5.92-6.97-9.4.48-7.35,5.35-.77,9.74-.78-4.42-4.68-6.26-8.37-4.57-13.9,1.68-5.49-.51-10.32-7.78-10.04h0c.11-2.11,6.11-5.03-.73-6.16-3.4-.57-3.96-4.48-6.98-5.32-9.21-3.93-10.42-10.07-3.8-19.33,8.82,1.45,10.83-4.57,10.19-10.91-.59-5.79,1.7-7.27,6.15-6.29,6.23,1.37,12.23-3.51,18.34-.19-1.52,2.86-4.62,3.03-7.09,4.35-5.09,2.71-7.48,5.97-9.47,12.69-4.39,14.8,4.41,22.7,10.54,32.89,3.68,6.12,5.61,13.31,9.75,19.31.64,2.54,2.7,4,4.39,5.76.33.83.22,1.59-.39,2.26,0,.6-.02,1.19-.05,1.79Z"/>
      <path class="cls-9" d="M392.77,180.28c-6.2.33-11.62,3.01-17.03,5.7-.84-4,1.11-7.59,1.68-11.38,1.05-8.94,2.61-17.81,3.86-26.73,2.99-3.57,1.4-12.08,10.15-9.51,3.48,5.33-4.45,10.09-.8,15.44.73,1.18,1.45,2.36,2.18,3.54,7.39,3.54,11.01,13.58,21.37,12.21,2.12-.28,3.74,2.22,5.88,2.86,6.02.83,11.46,2.8,15.39,7.77-11.14-2.09-22.38-2.38-33.66-1.75-3.08.17-6.36-.52-9,1.86Z"/>
      <path class="cls-70" d="M390.62,153.79c-8.05-4.9.7-9.05.6-13.6.69-4.12-2.36-7.5-2.27-11.51-.07-.92-.02-1.83.12-2.74.51-1.8,1.11-3.52,3.43-3.58,1.57,2.2,2.83,5.34,6.26,2.01-1.68-2.18-4.83-.12-6.51-2.24-2.16-3.29-2.26-6.98-2.14-10.72,1.74-3.57,3.7-6.85,8.53-6.1,4.83,5.57,4.79,13.8,11.47,18.74,4.62,3.41,1.59,10.48-6.04,12.58-4.63,1.27-5.58,3.23-5.41,7.11-2.15,3.77-6.9,5.47-8.04,10.05Z"/>
      <path class="cls-36" d="M433.41,99.65c-.02-.68-.04-1.36-.06-2.05,3.81-5.84,10.63-7.71,15.91-11.58,3.88-2.85,4.83,2.11,5.92,4.97.43,2.22,1.29,4.49-.56,6.51,0,0-.17.2-.18.2-2.73,1.25-.71,4.81-3.02,6.3-4.64-7.24-12.95.98-18.01-4.36Z"/>
      <path class="cls-6" d="M420.05,172.4c-11.4-.84-22.69-1.86-27.25-15.07,3.78-2.02,6.86-4.29,9.09,2.51,1.3,3.95,5.78,7.35,10.71,7.63,3.75.21,5.5,2.5,7.44,4.93Z"/>
      <path class="cls-48" d="M423.71,213.14c-9.77,1.27-19.15-2.91-28.89-2-3.2-3.66-7.87-.61-11.51-2.45,4.76-5.32,11.06-14.15,17.05-8.3,6.04,5.9,12.21,3.71,17.97,5.97,3.37,1.32,7.36,1.09,11.92,1.67-8.58,3.67-16.15-1.99-24.03-.35,4.82,5.87,12.5,1.18,17.49,5.46Z"/>
      <path class="cls-48" d="M391.38,197.1c12.95-3.17,25.29,1.18,37.87,1.44-12.83,2.7-25.3-2.69-37.87-1.44Z"/>
      <path class="cls-48" d="M413.67,193.52h-14.62c0-.32-.02-.63-.03-.95h14.64c0,.32,0,.63,0,.95Z"/>
      <path class="cls-76" d="M260.13,263.15c4.78-.67,7.16,1.7,9.69,5.72,3.94,6.26,5.18,13.92,10.74,19.33,2.72,2.65-2.9,6.59.61,9.65-.03.69-.05,1.38-.08,2.07-1.97,3.15-3.87,2.58-5.72-.11-4.26-1.92-6.08-5.99-8.4-9.6-2.22-3.45-3.82-7.54-8.83-7.82,1.43-5.7,3.84-11.46-1.18-16.71-.01-.93.24-1.79.7-2.59.84-.53,1.66-.54,2.47.06Z"/>
      <path class="cls-16" d="M275.36,299.82c1.89,1.13,3.8,1.19,5.73.11-.12,3.32.47,7.12,3.21,8.54,8.72,4.52,10.58,13.54,14.84,20.96,1.99,3.47,2.61,7.81-.25,10.63-2.84,2.8-5.59-1.46-8.32-2.37-4.15-1.38-7.07-5.14-9.4-9.01,6.69-3.95,8.19-8.05,2.57-14.87-3.32-4.03-9.41-7.13-8.38-13.99Z"/>
      <path class="cls-3" d="M258.04,265.12c7.28,5.72,7.03,11.48.1,17.28-2.7.4-5.85-.91-7.88,2.07-5.08-6.46-10.16-12.91-15.25-19.37,5.56-4.55,15.35-4.54,23.03.03Z"/>
      <path class="cls-50" d="M454.61,97.51c-.63-1.93-1.27-3.86-1.9-5.79,3.34-4.11,1.27-8.5.42-12.68-.72-3.57-3.79-3.58-6.82-3.5-2.55.07-4.76.71-4.61,3.49.51,10.03-7.6,11.56-14.1,14.72-6.57-6.28-6.91-15.9-13.55-22.99-5.01-5.35-8.12-14.68-11.03-22.69-.76-2.1.19-3.71,2.39-4.44,1.68-.55,3.12-1.79,2.66-3.47-3.92-14.16,7.34-14.47,15.72-17.43.59-.21,1.26-.23,1.89-.34,4.46-8.52,11.88-6.09,18.78-4.84,4.19.76,8.04-.39,12.03-.96,6.87,1.42,11.51,5.97,15.69,11.16,1.51,1.88,2.1,4.17.93,6.27-1.28,2.29-3.36.47-5.12.43-9.66-.23-19.33-.36-28.99-.52-8.62,1.68-7.42,8.53-7.68,14.52,3.25,4.26,13.01-11.18,12.8,3.27-.62,2.21.27,1.47.23,1.28-.84-5.15,2.16-6.6,6.62-6.54.62,0,1.18-.33,1.7-.74.62-.05,1.24-.12,1.85-.22,1.24.55,2.37,1.51,2.18,2.82-.57,3.92-8.34,8.02.95,11.59,4.08,1.57,5.32,8.7,11.83,6.47.5-.17,1.01,1.35.46,2.3-.42,1.47-.81,2.95-1.28,4.4-.82,2.56-4.82,6.9,2.68,4.65.06,1.5.11,3,.16,4.5,2.84,8.73,2.75,8.55-8.53,14.31-2.92,1.49-5.24,3.43-8.37.96Z"/>
      <path class="cls-2" d="M469.95,68.69c-4.25-4.47-5.28,3.26-9.26,1.95-.44-4.42-.59-9-7.52-10.25-5.15-.92-7.04-5.61-.95-9,2.87-1.6,3.77-3.03,2.31-5.88,4.59-3.89,10.47-1.86,15.32-1.97,3.88-.09,5.3,5.58,1.22,9.62-2.65,2.61-6.1,4.97-4.56,9.74,3.64,2.29,5.09-6.77,9.22-1.9-1.93,2.57-3.86,5.13-5.79,7.7Z"/>
      <path class="cls-19" d="M452.68,45.72c-5.14,2.06-8.97,5.17-9.6,11.31v-11.02c-5.09,4.79-10.1,6.39-18,7.37,8.36-5.68-4.36-22.05,13.92-19.45,2.65,2.81,8.56,2.53,7.36,9.19-.47,2.61,3.88,2.28,6.31,2.6Z"/>
      <path class="cls-41" d="M469.44,122.99c-1.03,2.45-2.55,4.53-4.75,4.47-2.49-.07-4.58-2.24-4.72-4.69-.09-1.72,1.93-3.05,3.87-3.58.46,3.15,4.02,2.2,5.59,3.79Z"/>
      <path class="cls-59" d="M477.41,93.92c.16,1.17.32,2.35.48,3.52-1.67,2.74-3.61,5.19-8.17,7.22,1.24-5.54,1.66-9.89,7.69-10.75Z"/>
      <path class="cls-66" d="M472.72,170.95c-5.57,2.78-11.14,5.56-16.79,8.38q-2.71-11.18,16.79-8.38Z"/>
      <path class="cls-30" d="M140.69,178.44c-1.62-2.29-5.04-2.71-5.95-5.73-.6-.5-.77-.96-.53-1.39.24-.41.46-.62.68-.62,2.23-.73,4.56,3.4,6.5.23,1.7-2.77,4.06-6.3.61-9.17-3.82-3.17-1.28-6.59.6-7.4,2.3-.99,6.8,1.43,6.66,3.85-.86,14.2,11.09,14.7,19.45,18.87,5.64,2.81,11.62,4.92,17.98,6.9-2.33-2.6-5.83-7.33-3.82-8.22,5.26-2.33,10.44-9.59,17.42-3.11.5.58.7,1.25.61,2.01-.64,1.2-1.97,2.27-.68,3.81-1.27,2.56-2.54,5.13-3.81,7.69-6.13,4.64-10.24,10.14-9.04,18.49.67,4.72-1.75,8.06-6.37,9.23-5.39,1.37-6.03-3.24-7.58-6.57-1.28-4.49-2.56-8.97-3.84-13.46,2.83-6.37-2.82-15.24-9.75-14.98-2.09.08-5.15,2.22-6.11.1-4.25-9.4-8.75-.4-13.04-.54Z"/>
      <path class="cls-18" d="M134.89,170.7c-.05.67-.11,1.34-.16,2.01-7.56-5.06-13.39-10.92-9.7-21.14,1.93.62,3.87,1.24,5.8,1.85,1.35,5.76,2.7,11.52,4.06,17.27Z"/>
      <path class="cls-52" d="M55.99,58.91c-3.27-1.89-6.54-3.79-9.81-5.68,1.24-1.26,2.47-2.52,3.71-3.77.25,4.3,6.46,4.76,6.1,9.46Z"/>
      <path class="cls-35" d="M200.35,174.59c-.02-.64-.04-1.28-.06-1.93-.49-4.37,1.59-6.16,5.82-5.8,0,0,0,0,0,0,1.35,5.01,1.27,8.95-5.75,7.74Z"/>
      <path class="cls-17" d="M260.13,263.15c-.71.02-1.41.04-2.12.06-3.38-1.46-6.79.49-10.18-.09-1.83-.31-3.83-.39-4.96-2.1-2.24-3.36-3.16-3.22-6.54,1.22-.38.49-.93.81-1.52,1.06-9.98-9.14-9.43-21.95-11.48-34.22,5.79-2.48,11.21,2.29,17.26,2.54-2.41.46-4.83.93-8.64,1.66,14.11,3.48,26.77-2.71,41.4-.11-8.93,1.32-15.95,2.36-22.97,3.4,6.56-.05,6.49,7.3,10.81,9.51,1.43.73.72,1.25-.18,1.62-9.65,3.94-.57,7.89.31,11.56.45,1.89,1.57,1.76-1.19,3.9Z"/>
      <path class="cls-15" d="M173.42,207.32c3.91-.62,2.2,8,8.1,4.68,4.84-2.73,3.19-6.46,3.42-10.59.4-7.09,2.34-14.19,11.47-15.24.04,7.02.08,14.03.13,21.04,1.04,2.1,2.38,4.03,3.31,6.2.64,5.07,3.41,10.31-1.21,14.95-.82,1.18-1.96,3.5-2.4,3.37-7.77-2.25-16.36-3.4-22.89-7.68-5.92-3.88-.73-11.04.08-16.74Z"/>
      <path class="cls-51" d="M198.06,213.12c-2.05-1.56-1.61-3.78-1.52-5.89,1.26.71,2.51,1.41,3.76,2.12,4.94-2.36,9.43-1.28,13.69,1.73,3.13,14.18,6.25,28.35,9.38,42.53-1.29.63-2.57,1.25-3.86,1.88-7.75-6.41-7.83-16.33-10.78-24.78-2.39-6.84-4.85-13.08-10.67-17.59Z"/>
      <path class="cls-58" d="M213.99,211.07c-4.56-.58-9.13-1.16-13.69-1.73.26-4.69-1.14-9.67,2.44-13.82,1.98,1.12.98,2.63.47,4-.63,1.7-.69,3.27,1.4,3.7,2.45.5,1.87-1.68,2.45-3.01,3.07-7.03,3.69-14.91,9.22-21.22,2.58-2.94,4.88-2.59,8.49-4.72-5.53,10.44-11.79,18.89-6.86,30.02.62,1.4-2.53,4.48-3.94,6.78Z"/>
      <path class="cls-23" d="M234.81,263.29c1.64-2.38,1.11-4.69-2.07-7.62,6.47.28,10.82,2.65,15.47,1.69.27,3.18-3.63.84-3.58,3.38,4.25,1.99,9.52-1.52,13.39,2.47.02.64.03,1.27.03,1.91-7.68,1.25-15.35-3.69-23.03-.03-.05-.6-.12-1.2-.2-1.8Z"/>
      <path class="cls-38" d="M200.35,174.59c4.56-.62,4.99-4.3,5.75-7.74,1.87-.67,3.75-1.34,5.62-2.01,1.38,8.94-4.38,11.86-11.5,13.64-1.93-1.36-1.87-2.66.13-3.89Z"/>
      <path class="cls-37" d="M398.64,105.32c-2.58,1.91-5.15,3.82-7.73,5.74-7.51,4.75-4.71-3.53-6.95-5.45-.53-.65-1.07-1.28-1.68-1.85-2.87-2.29-5.31-3.13-7.6.95-2.14,3.82-5.63,5.4-9.44,2.54-3.41-2.55-4.45-6.03-1.07-9.66-.04-3.19-.07-6.37-.11-9.56,6.09-.67,11.74,2.39,18.38,1.78.91-4.63-3.15-6.1-6.07-7.98-11.66-7.47-11.69-7.39-8.39-20.33.4-1.55.74-3.1,1.82-4.35-1.11-5.76,3.11-10.15,3.93-15.42,5.89.51,11.83,1.49,17.28-1.92-2.11,7.11-4.02,14.17,3.8,19.33-1.51,10.05-.04,20.42-3.58,30.3-.79,2.19-1.29,6.55,3.88,5.06,3.28-.95,5.84-.43,6.96,2.92,1.15,3.45,0,6.27-3.42,7.93Z"/>
      <path class="cls-53" d="M388.67,29.17c.22,4.68-1.09,8.06-4.86,9.69-2.07.9-4.26-2.49-4.14-2.91,1.15-4.16,4.64-5.57,9.01-6.78Z"/>
      <path class="cls-78" d="M46.01,59.14c-1.81,4.64-4.6,5.59-8.23,1.92-2.46-2.48-4.65-5.23-6.96-7.86,5.04.03,10.08.06,15.12.09.02,1.95.05,3.9.07,5.85Z"/>
      <path class="cls-35" d="M198.06,213.12c8.32.28,10.05,7.04,11.58,12.93,2.62,10.07,6.26,19.73,9.87,29.44,0,0,0,0,0,0-1.92,1.69-3.83,1.56-5.75,0-7.74-7.53-11.08-17.52-15.13-27.11-.19-5.09-.38-10.17-.57-15.26Z"/>
      <path class="cls-51" d="M213.76,255.49c1.92,0,3.83,0,5.75,0,1.52,2.9,3.04,5.8,5.58,10.66-5.92-3.42-9.77-5.77-11.33-10.66Z"/>
      <path class="cls-7" d="M383.23,147.63c.22,9.45-1.05,18.58-5.8,26.97-2.53-6.22-7.53-11.69-5.82-19.19.04-1.29.08-2.57.13-3.86,3.45-2.44,6.94-4.73,11.49-3.92Z"/>
      <path class="cls-25" d="M368.01,143.55c-.11-7.64-.21-15.28-.32-22.92,1.85-7.28,11.31-8.76,12.54-16.5,1.46-1.38,2.95-2.5,4.78-.53l-.12.13c1.78,5.96,2.92,11.93.3,17.96-4.04,7.11-6.61,15.08-12.17,21.34-1.55,1.36-3.12,2.55-5.02.51Z"/>
      <path class="cls-13" d="M385.01,103.6c-1.62-.27-3.32-.73-3.93,1.55-3.62,7.22-10.33,10.64-17.16,13.91-1.21-.81-2.43-1.61-3.64-2.42-2.27-6.76-1.45-13.1,2.62-18.99.43-.05.85-.08,1.27-.08.29,3.34-1.21,7.78,3.27,9.05,4.69,1.34,4.54-3.34,6.56-5.88,4.27-5.38,7.84-.4,11.01,2.85Z"/>
      <path class="cls-28" d="M368.01,143.55c1.54.16,2.83-.23,3.63-1.67,6.84,3.02,10-.28,12.27-6.48,1.11-3.05.06-9.36,6.99-6.97.37,3.91,3.87,7.74.32,11.76-1.47-1.67-2.71-2.34-3.97.33-1.16,2.45-2.67,4.74-4.02,7.1-3.37,2.65-6.97,4.65-11.5,3.91.32-3.39-4.4-4.44-3.72-7.99Z"/>
      <path class="cls-54" d="M363.93,119.06c4.27-6.43,12.17-8.38,17.16-13.91-.09,8.94-8.74,10.48-13.39,15.48-3.49,2.45,0,7.57-3.97,10.07-3.99-3.99.19-7.81.21-11.64Z"/>
      <path class="cls-69" d="M369.8,57.14c-4.24,12.51-1.34,21.36,12.24,25.61,3.84,1.2,5.84,4.55,3.16,9.13-2.99,5.11-4.96,1.24-7.27-.44-.26-.19-.73-.54-.75-.52-6.26,7.47-8.4-3.57-13.12-2.91.21-7.47.03-14.99.8-22.4.32-3.11.99-7.01,4.93-8.47Z"/>
      <path class="cls-49" d="M32.8,62.91c-6.28-.53-10.85-6.33-17.51-5.71-2.59-2.85-.67-5.89-.26-10.55,6.43,5.88,12.1,11.07,17.77,16.26Z"/>
      <path class="cls-48" d="M323.55,301.72c1.85,7.54-6.29,4.93-8.67,8.62-.67-6.78,4.19-7.5,8.67-8.62h0Z"/>
      <path class="cls-24" d="M402.52,70.61c1.07,2.78,2.13,5.56,3.45,8.99-7.26-4.19-7.42-4.71-3.44-8.98,0,0,0,0,0,0Z"/>
      <path class="cls-62" d="M427.6,93.74c.96-1.58,1.74-4.4,2.9-4.56,8.19-1.14,9.43-6.27,8.79-13.22-.22-2.34,10.32-5.21,12.9-3.67,5.47,3.26,5.76,14.32.51,19.41-1.85-5.33-2.35-5.61-3.37-3.76-3.54,6.38-9.69,8.05-15.99,9.64-2.76-.02-5.63.11-5.74-3.86Z"/>
      <path class="cls-26" d="M390.9,128.44c-6.29,1.6-3.4,7.91-5.87,11.53-2.14,3.13-4.06,6.52-8,7.32-4.04.82-2.79-4.36-5.39-5.4,3.84-6.47,7.69-12.93,11.53-19.4,2.86.79,5.62,1.78,7.69,4.06.06.63.08,1.26.04,1.89Z"/>
      <path class="cls-44" d="M390.86,126.54c-3.03-.46-7.11,1.05-7.69-4.06,1.07-6.21,3.13-12.32,1.72-18.75,4.72.21-1.28,9.24,6.02,7.32,2.43,3.54,1.89,7.57,1.93,11.51h-.02c-1.62.85-1.8,2.41-1.97,3.98Z"/>
      <path class="cls-64" d="M392.85,122.57c6.83-5.26,8.72-.77,9.87,5.2-3-2.32-9.9,3.08-9.88-5.19,0,0,.01,0,.01,0Z"/>
    </g>
  </g>
</svg>