<?xml version="1.0" encoding="UTF-8"?>
<svg id="Calque_2" data-name="Calque 2" xmlns="http://www.w3.org/2000/svg" viewBox="0 0 1109.37 879.38">
  <defs>
    <style>
      .cls-1 {
        fill: #a67c52;
      }

      .cls-1, .cls-2, .cls-3, .cls-4, .cls-5, .cls-6 {
        stroke-width: 0px;
      }

      .cls-3 {
        fill: #6a4f4f;
      }

      .cls-4 {
        fill: #ff0;
      }

      .cls-5 {
        fill: #fff;
      }

      .cls-6 {
        fill: #42210b;
      }
    </style>
  </defs>
  <g id="Calque_1-2" data-name="Calque 1">
    <path class="cls-1" d="M196.02,656.38s-16,52,4,91c52.9,21.62,212.78,14.32,371,23-9.04-137-92-168-92-168"/>
    <polygon class="cls-1" points="220.13 555.04 169.02 699.38 552.73 724.84 611.02 640.38 394.02 509.38 220.13 555.04"/>
    <g>
      <path class="cls-4" d="M610.95,297.19s295.56,130.35,312.04,271.74,186.37,169.49,186.37,169.49l-29.61,97.38s-193.45-50.44-248.54-214.16c-55.08-163.72-269.47-229.37-269.47-229.37l49.2-95.08Z"/>
      <path class="cls-2" d="M739.84,483.22c-69.89-48.36-139.14-69.56-139.14-69.56l49.2-95.08s72.92,32.16,148.34,81.86"/>
      <path class="cls-2" d="M900.06,733.93c-27.08-28.3-50.63-63.11-64.9-105.53-2.46-7.32-5.25-14.45-8.31-21.38l97.71-44.68c1.06,4.44,1.86,8.89,2.38,13.35,4.92,42.16,23.47,74.24,47.09,98.51"/>
    </g>
    <path class="cls-6" d="M232.84,603.8s-40.81,35.58-36.81,52.58-52-16-52-16l35-112s28-15,28-16,25.81,91.42,25.81,91.42Z"/>
    <path class="cls-6" d="M505.06,600.45s34.5,29.48,45.97,62.93,41,23,41,23l26-10s2-111,3-111-36-85-36-85l-79.97,41.59v78.48Z"/>
    <path class="cls-6" d="M428.02,879.38s109.37-41,121.69-42,34.39-9,45.35,0,58.96-9,58.96-9c0,0,87.39-48.49,74.7-60.25s-279.7,37.25-278.7,38.25-22,73-22,73Z"/>
    <path class="cls-6" d="M1.02,688.38s1.85,35.88,8,41,9-6,12-5,6,23,9,23,4-10,6-10,2,19,19,23,33,6,29,13c18,9,119,33.27,179,3v-11L1.02,688.38Z"/>
    <path class="cls-3" d="M182.51,268.19s-5.49,45.19-34.49,71.19S-1.98,637.38.02,688.38c0,0,31,37,41,38s21,21,25,22,5-10,9-12,13,9,18,9,31-3,43,5,21,18,26,19,13,11,24,10,32-3,35-3,36-3,41,0,17-23,15-31-12-13-16-18-17-27-17-33-2-11-7-9,1,8-13-4-30-26-31-33,0,8-3,10-27-12-27-18,4-19,4-29-5-14-4-21,23-21,25-32,7-38,9-38-10,54-9,56,3,13,10,16,27,17,29,16,69-61,148-60,131,53,131,53c0,0,12-13,15-12s7,5,10,2,27-17,36-16,0-7-2-11,8-7,11-5,3-11,3-15,1-21-8-31,1-5,5-1,12,32,12,76-22,75-44,114-36,37-49,40-68,9-78,32-31,46-31,63,42,42,42,42c0,0,37-25,49-32s32-18,46-28,21-16,22-11-15,10-1,10,85-1,96-4,66-25,73-32,33-28,37-38,22-115,21-129-9-35-7-37,15,6,18,5-23-59-23-69-39-67-41-70,25,33,30,28-30-42-33-51-12-36-26-54-44-56-49-68-27-41-28-55,1.1-35.73,1.1-35.73l-430.61,59.54Z"/>
    <path class="cls-6" d="M180.92,264.36c-.9,21.03-51.9,104.03-60.9,115.03,33,25,31,32,50,48s80.66,54.5,142,64c71,11,132.02-1.88,147-10s108-182,108-182l-386.1-35.03Z"/>
    <path class="cls-3" d="M583.02,113.38s46-37,33-68-46-57-78-40-5,76-5,76l50,32Z"/>
    <path class="cls-3" d="M271.02,32.38S263.02-.62,217.02,1.38s-52,51-52,64,14,43,36,44,67-30,67-30l3-47Z"/>
    <path class="cls-3" d="M397.02,1.29c-74,.04-187,25.09-220,153.09s61,184,86,199,51.76,36.2,111.88,37.1,135.12-32.1,156.12-49.1,85-89,82-141S581.02,1.21,397.02,1.29Z"/>
    <path class="cls-6" d="M347.02,259.38s-53,16-60,56c-5.88,33.62,3.96,61.98,8.98,65.99s28.02-3.99,26.02-19.99,19-88,25-89,0-13,0-13Z"/>
    <path class="cls-2" d="M327.02,180.38s-12-37-50-14,59.95,45.02,56.97,31.51c-2.97-13.51-6.97-17.51-6.97-17.51Z"/>
    <path class="cls-2" d="M405.29,174.38s12-37,50-14-59.95,45.02-56.97,31.51c2.97-13.51,6.97-17.51,6.97-17.51Z"/>
    <path class="cls-6" d="M185.92,126.85s-22.88,79.53,5.11,132.53c27.99,53,104.99,108,104.99,108l-10.82,6.94c-49.83-25.84-86.07-60.68-104.61-107.21,0,0-10.08-25.75-11.57-54.73-1.46-28.28,10-77,16.9-85.53Z"/>
    <ellipse class="cls-5" cx="305.02" cy="181.38" rx="8" ry="5.5"/>
    <ellipse class="cls-5" cx="421.52" cy="178.88" rx="9.5" ry="5.5"/>
    <path class="cls-2" d="M182.72,272.14c144.23,172.13,290.4,165.22,438.33-5.51l65.98,81.74c-189.03,174.06-395.68,203.09-567,11l62.69-87.24Z"/>
    <path class="cls-4" d="M300.45,374.33c36.16,18.4,72.44,25.97,108.84,22.95l12.74,91.13c-57.22,8.08-113.89.58-168.66-24.46"/>
    <path class="cls-4" d="M538.7,345.6c27.79-20.45,55.64-46.83,83.55-79.05l65.98,81.74c-32.79,30.2-66.12,56.03-99.69,77.1"/>
    <path class="cls-6" d="M373.34,224.38c11.68,0,45.76,49,45.76,49l-86.08-1.54s28.64-47.46,40.32-47.46Z"/>
    <path class="cls-5" d="M370.02,254.19c-6.87.22-13.71,1.63-20.3,4.1-29.84,11.16-54.52,43.77-53.7,83.09,1,48,27,59,42,60s34.76-10.8,36.88-10.9c2.12-.1,12.71,11.02,28.91,10.96s56.2-15.06,55.2-47.06-40.31-100.38-64.65-100.19-24.35,0-24.35,0Z"/>
    <path class="cls-2" d="M371.02,381.38c2,0,37-12,36-36s-21-21-34-21-41-1-40,19,38,49,40,47-3.97-8.47-2-9Z"/>
    <path class="cls-4" d="M151.78,393.21c-10.97-10.3-21.82-21.44-32.52-33.44l62.69-87.24c11.25,13.43,22.51,25.77,33.79,37.02"/>
    <path class="cls-6" d="M555.5,31.75c2.73-7.01,23.49,2.35,28.19,8.22,4.7,5.87,2.35,28.19-10.57,34.06s5.87-9.4,5.87-9.4c0,0-17.12-6.34-22.94-18.09-2.1-4.24-2.73-9.19-.55-14.8Z"/>
    <path class="cls-6" d="M235.03,31.56c-1.83-8.25-27.24-1.84-33.67,3.75s-7.83,30.67,5.84,39.6c13.67,8.92-4.99-11.48-4.99-11.48,0,0,20.69-3.76,29.48-15.63,3.18-4.29,4.8-9.63,3.33-16.23Z"/>
  </g>
</svg>