<?xml version="1.0" encoding="UTF-8"?>
<svg id="Calque_2" data-name="Calque 2" xmlns="http://www.w3.org/2000/svg" xmlns:xlink="http://www.w3.org/1999/xlink" viewBox="0 0 1432.96 1431.74">
  <defs>
    <style>
      .cls-1 {
        fill: #e6e6e6;
        opacity: .6;
      }

      .cls-1, .cls-2, .cls-3, .cls-4 {
        stroke-width: 0px;
      }

      .cls-2 {
        fill: #358fae;
      }

      .cls-3 {
        fill: url(#Dégradé_sans_nom_4);
        opacity: .43;
      }

      .cls-4 {
        fill: #006837;
      }
    </style>
    <radialGradient id="Dégradé_sans_nom_4" data-name="Dégradé sans nom 4" cx="677.66" cy="672.96" fx="153.9" fy="228.35" r="769.81" gradientUnits="userSpaceOnUse">
      <stop offset="0" stop-color="#000" stop-opacity="0"/>
      <stop offset="1" stop-color="#000" stop-opacity=".8"/>
    </radialGradient>
  </defs>
  <g id="Calque_1-2" data-name="Calque 1">
    <g>
      <circle class="cls-2" cx="717.46" cy="716.24" r="715.5"/>
      <path class="cls-4" d="M1139.63,138.51s-33.67,294.23-110.67,330.23-158.83,13-129.42,229-62.58,441,95.42,436-295,80-305,124,177.63,158.21,177.63,158.21c0,0,412.37-232.21,401.37-303.21s-52-232-11-285,104-78,94-216-95-255-78-289,12.37-40.53,12.37-40.53c-42.37-56.16-92.03-103.1-146.7-143.71Z"/>
      <path class="cls-4" d="M890.89,21.92s-77.93,21.23-79.43,55.53,27.5,8.3,13.5,59.3-16.11,40.56-13.56,110.78,8.56,103.22,30.56,115.22,41,72,34,99,2,49-56,72-116,14-140-19-64-60-110-58-72,28-72,49,7,110,19,130,83,49,85,105,21,66-22,100-166,125-197,73-14-138-82-113-95,105-95,129,45,133,46,153,155-18,180-15,89,132,80,200-74.39,107.18-74.39,107.18C49.66,1174.34-103.04,810.74,72.08,408,216.76,134.58,492.37-64.82,890.89,21.92Z"/>
      <path class="cls-1" d="M781.96,48.74c-30.18,8.62-156.28,11.71-151.14,46.85s-22.86,108.15,42.14,140.15,69,125,63,144-137,49-149,40,122-90,76-114-74-69-98-94-32.57-26.46-32.79-73.23,29.68-113.36,32.31-120.6c23.47-21.17,204.47-24.17,274.42-5.81,0,0-49.94,34.64-56.94,36.64Z"/>
      <path class="cls-1" d="M26.61,537.32s78.35-25.58,80.35-56.58,1-74,32-77,87,20,92,50-9,48.15,0,83.58,21,61.42,60,47.42,54-35,54-62,85-19,73,12-47,52-98,77-183.54,24-185.77,0-75.23-50-85.23-38-38.7,112.41-22.35,160.2-4.93,165.88-4.93,165.88c-10.81-90.36-45.43-122.44,4.93-362.51Z"/>
      <path class="cls-1" d="M756.67,688.16c15.72,55.41,29.28,45.59,124.72,28.09s-2.44-55.5,9.49-137.63,40.07-68.87,111.07-54.87,56,48,31.38,127.91-34.38,25.09-68.03,64.59,40.65,84.5,72.65,168.5,4,109-41,141-61,111-127,136-82-77-84-132,102-81,127-143-7-52-40.63-109.51-77.37,46.51-97.37,93.51-60,75-89.42,61.63-46.58-58.63-77.96-129.65,61.38-108.98,109.88-126.6c0,0,23.5-43.38,39.22,12.04Z"/>
      <path class="cls-1" d="M1386.1,461.05s-137.15,40.69-126.15,58.69-46,142,27,215,127.29,147.51,99.15,181.76-177.15,1.24-198.15,75.24-52,241.75,0,173.88-22-107.88,40-137.88,151.78-40.23,151.78-40.23c28.99-69.66,46.01-144.59,53.22-223.84,0,0-109.64-37.93-104.82-65.93s11.82-66,23.82-86,29-38,31-74,3.15-76.69,3.15-76.69Z"/>
      <path class="cls-3" d="M1073.7,95.6c88.33,571.96-257.52,886.76-883.74,1104.15,18.36,19.64,36.34,37.55,53.69,52.64,126.2,111.61,292.09,179.36,473.81,179.36,395.16,0,715.5-320.34,715.5-715.5,0-265.46-144.56-497.15-359.26-620.65Z"/>
    </g>
  </g>
</svg>