<?xml version="1.0" encoding="UTF-8"?>
<svg id="Calque_2" data-name="Calque 2" xmlns="http://www.w3.org/2000/svg" viewBox="0 0 424.63 295.06">
  <defs>
    <style>
      .honey-1 {
        fill: #a67c52;
      }

      .honey-1, .honey-2, .honey-3, .honey-4, .honey-5, .honey-6, .honey-7, .honey-8 {
        stroke-width: 0px;
      }

      .honey-2 {
        fill: #f7931e;
      }

      .honey-3 {
        fill: #fff;
      }

      .honey-4 {
        fill: #deaf7a;
      }

      .honey-5 {
        fill: #f15a24;
      }

      .honey-6 {
        fill: #534741;
      }

      .honey-9 {
        fill: none;
        stroke: #000;
        stroke-linecap: round;
        stroke-miterlimit: 10;
        stroke-width: 3px;
      }

      .honey-7 {
        fill: #fbb03b;
      }

      .honey-8 {
        fill: #c69c6d;
      }
    </style>
  </defs>
  <g id="Calque_1-2" data-name="Calque 1">
    <path class="honey-1" d="M21,211.06l125,9s66,6,73,4,132-1,136,10-41,45-41,45c0,0-28,9-43,12s-82,1-92,0-125-12-179,4l21-84Z"/>
    <g>
      <path class="honey-4" d="M399.5,239.56c1,0,24-5,25-13s-13-13-18-12-81.5,24.5-94.5,24.5c-16,2-11.5,8.5,2,7s85.5-6.5,85.5-6.5Z"/>
      <path class="honey-6" d="M423.47,222.12s-18.47,3.94-18.47,7.94,2.87,7.41,2.87,7.41c0,0,16.23-4.9,16.68-9.65s-1.08-5.7-1.08-5.7Z"/>
    </g>
    <g>
      <path class="honey-8" d="M392.37,252.68c.99.17,24.5-.79,26.87-8.49s-10.56-15.05-15.66-14.93-84.5,10.07-97.31,7.83c-16.11-.79-12.79,6.39.76,7.24s85.34,8.35,85.34,8.35Z"/>
      <path class="honey-6" d="M418.99,239.63s-18.87.7-19.56,4.64,1.55,7.79,1.55,7.79c0,0,16.83-2.02,18.1-6.63s-.08-5.8-.08-5.8Z"/>
    </g>
    <path class="honey-4" d="M249,273.06c31.9,15.44,76.72-1.16,83.79-1s61.48-3.98,65.76-5.29,6.41-1.98,4.43-8.39c-1.98-6.41-12.34-11.17-19.4-11.33s-26.8-.43-33.37-2.02-24.97-.61-27.36,1.54-77.84-11.52-77.84-11.52l-15,26,19,12Z"/>
    <g>
      <path class="honey-3" d="M181,97.06s-14,51-14,68-4,66,45,73,112,5,127-3,38-18,36-56-16-86-16-86l-178,4Z"/>
      <path class="honey-5" d="M177,67.06s-11,19-24,23c0,10,16,21,23,23s23-8,26-7,3,19,18,20,25-17,29-17,3,16,21,16,19-16,22-16,12.36,19.08,31.18,17.04,10.82-19.04,14.82-20.04,23,14,35,4,15-16,15-19-20-13-23-22-188-2-188-2Z"/>
      <path class="honey-2" d="M350,55.06s24-1,19,19-55,25-98,24-84.09-1.89-96.54-21.44,19.54-24.56,19.54-24.56l156,3Z"/>
      <path class="honey-5" d="M363,19.06c1,5-1,25-1,38s-32,21-93,19-91-4-91-20-5-32.22,0-38.11,185,1.11,185,1.11Z"/>
      <path class="honey-2" d="M179,18.06c-.77,9.97,20,20,91,21s94-12,93-20S294-.94,272,.06s-92,5-93,18Z"/>
      <path class="honey-7" d="M270,146.06c-32.02,0-54,11-54,27s26,32,51,32,59-13,58-31-21-28-55-28Z"/>
      <g>
        <path class="honey-9" d="M241.5,188.56s-3-19-1-19,4,5,6,5,3-9,7-9,5,21,5,21"/>
        <line class="honey-9" x1="268.5" y1="174.56" x2="270.5" y2="184.56"/>
        <line class="honey-9" x1="267.5" y1="168.56" x2="267.5" y2="170.56"/>
        <path class="honey-9" d="M294.5,185.56s-15,3-16-6,9-7,10-3-10,2-10,2"/>
        <line class="honey-9" x1="302.5" y1="163.56" x2="303.19" y2="184.56"/>
      </g>
    </g>
    <path class="honey-8" d="M202.5,254.56s23,5,27,7,29,9,41,8,27,3,30,3,12,2,11-15-19-21-26-23-15,0-21-1-28-10-41-18-32-14-57-13-46,22-46,22c0,0-11.5,15.96,0,24.23s82,5.77,82,5.77Z"/>
    <path class="honey-6" d="M311.58,256.73s-11.58-9.67-19.58-6.67-6.71,20.11-6.71,20.11c0,0,13.11,4.51,21.41,1.7s4.88-15.14,4.88-15.14Z"/>
    <path class="honey-6" d="M378.15,269.57c.3-1.62-.36-9.84,11.8-9.84,12.17,0,13.83,1.16,13.83,1.16,0,0,2.47,4.92-2.8,5.91s-22.83,2.77-22.83,2.77Z"/>
  </g>
</svg>